<svg xmlns="http://www.w3.org/2000/svg" xmlns:xlink="http://www.w3.org/1999/xlink" width="300" zoomAndPan="magnify" viewBox="0 0 224.87999 74.999997" height="100" preserveAspectRatio="xMidYMid meet" version="1.0"><defs><g/><clipPath id="48acf4b580"><path d="M 0 0.0195312 L 224.761719 0.0195312 L 224.761719 74.980469 L 0 74.980469 Z M 0 0.0195312 " clip-rule="nonzero"/></clipPath><clipPath id="8548aeb556"><path d="M 93.1875 12.761719 L 131.417969 12.761719 L 131.417969 38.996094 L 93.1875 38.996094 Z M 93.1875 12.761719 " clip-rule="nonzero"/></clipPath><clipPath id="74c5a7aa28"><rect x="0" width="48" y="0" height="10"/></clipPath></defs><g clip-path="url(#48acf4b580)"><path fill="#ffffff" d="M 0 0.0195312 L 224.878906 0.0195312 L 224.878906 74.980469 L 0 74.980469 Z M 0 0.0195312 " fill-opacity="1" fill-rule="nonzero"/><path fill="#303030" d="M 0 0.0195312 L 224.878906 0.0195312 L 224.878906 74.980469 L 0 74.980469 Z M 0 0.0195312 " fill-opacity="1" fill-rule="nonzero"/></g><g clip-path="url(#8548aeb556)"><path fill="#ed5b2d" d="M 131.136719 14.269531 C 130.585938 13.324219 129.605469 12.761719 128.515625 12.761719 L 120.328125 12.761719 C 119.199219 12.761719 118.15625 13.367188 117.59375 14.347656 L 110.410156 26.925781 L 107.222656 21.351562 C 106.585938 20.234375 105.4375 19.566406 104.152344 19.566406 C 102.867188 19.566406 101.71875 20.234375 101.082031 21.351562 L 93.769531 34.148438 C 93.191406 35.160156 93.195312 36.367188 93.78125 37.375 C 94.367188 38.382812 95.410156 38.984375 96.578125 38.984375 L 104.511719 38.984375 C 105.617188 38.984375 106.640625 38.390625 107.191406 37.429688 L 110.410156 31.800781 L 113.441406 37.105469 C 114.101562 38.265625 115.34375 38.984375 116.679688 38.984375 L 116.695312 38.984375 C 117.964844 38.984375 119.144531 38.300781 119.773438 37.199219 L 131.144531 17.292969 C 131.6875 16.347656 131.683594 15.214844 131.136719 14.269531 Z M 128.941406 16.277344 L 117.554688 36.207031 C 117.402344 36.472656 117.117188 36.640625 116.808594 36.640625 L 116.460938 36.640625 C 116.152344 36.640625 115.863281 36.472656 115.710938 36.203125 L 111.800781 29.363281 L 119.945312 15.105469 L 128.261719 15.105469 C 128.542969 15.105469 128.796875 15.253906 128.9375 15.496094 C 129.082031 15.742188 129.082031 16.03125 128.941406 16.277344 Z M 109.015625 29.363281 L 104.859375 36.640625 L 96.769531 36.640625 C 96.425781 36.640625 96.121094 36.460938 95.945312 36.164062 C 95.773438 35.871094 95.773438 35.515625 95.945312 35.21875 L 103.261719 22.410156 C 103.445312 22.085938 103.78125 21.890625 104.152344 21.890625 C 104.527344 21.890625 104.859375 22.085938 105.042969 22.410156 Z M 109.015625 29.363281 " fill-opacity="1" fill-rule="nonzero"/></g><g transform="matrix(1, 0, 0, 1, 89, 41)"><g clip-path="url(#74c5a7aa28)"><g fill="#f6f6e9" fill-opacity="1"><g transform="translate(0.907512, 7.702042)"><g><path d="M 1.6875 0 L 0.640625 0 C 0.554688 0 0.515625 -0.046875 0.515625 -0.140625 L 0.515625 -4.984375 C 0.515625 -5.097656 0.546875 -5.171875 0.609375 -5.203125 C 0.671875 -5.234375 0.75 -5.207031 0.84375 -5.125 L 3.703125 -2.609375 L 3.703125 -4.96875 C 3.703125 -5.050781 3.742188 -5.09375 3.828125 -5.09375 L 4.875 -5.09375 C 4.96875 -5.09375 5.015625 -5.050781 5.015625 -4.96875 L 5.015625 -0.125 C 5.015625 -0.0078125 4.976562 0.0625 4.90625 0.09375 C 4.832031 0.125 4.742188 0.09375 4.640625 0 L 1.828125 -2.5625 L 1.828125 -0.140625 C 1.828125 -0.046875 1.78125 0 1.6875 0 Z M 1.6875 0 "/></g></g></g><g fill="#f6f6e9" fill-opacity="1"><g transform="translate(7.032361, 7.702042)"><g><path d="M 1.71875 0 L 0.640625 0 C 0.546875 0 0.5 -0.046875 0.5 -0.140625 L 0.5 -4.96875 C 0.5 -5.050781 0.546875 -5.09375 0.640625 -5.09375 L 3.8125 -5.09375 C 3.90625 -5.09375 3.953125 -5.050781 3.953125 -4.96875 L 3.953125 -4.078125 C 3.953125 -3.984375 3.90625 -3.9375 3.8125 -3.9375 L 1.859375 -3.9375 L 1.859375 -2.84375 L 3.5 -2.84375 C 3.59375 -2.84375 3.640625 -2.796875 3.640625 -2.703125 L 3.640625 -1.890625 C 3.640625 -1.796875 3.59375 -1.75 3.5 -1.75 L 1.859375 -1.75 L 1.859375 -0.140625 C 1.859375 -0.046875 1.8125 0 1.71875 0 Z M 1.71875 0 "/></g></g></g><g fill="#f6f6e9" fill-opacity="1"><g transform="translate(11.834311, 7.702042)"><g><path d="M 3.0625 0.140625 C 2.644531 0.140625 2.265625 0.078125 1.921875 -0.046875 C 1.585938 -0.171875 1.296875 -0.347656 1.046875 -0.578125 C 0.804688 -0.816406 0.617188 -1.101562 0.484375 -1.4375 C 0.359375 -1.769531 0.296875 -2.140625 0.296875 -2.546875 C 0.296875 -2.953125 0.359375 -3.320312 0.484375 -3.65625 C 0.617188 -3.988281 0.804688 -4.269531 1.046875 -4.5 C 1.296875 -4.738281 1.585938 -4.921875 1.921875 -5.046875 C 2.265625 -5.171875 2.644531 -5.234375 3.0625 -5.234375 C 3.539062 -5.234375 3.96875 -5.144531 4.34375 -4.96875 C 4.726562 -4.800781 5.046875 -4.566406 5.296875 -4.265625 C 5.347656 -4.203125 5.335938 -4.140625 5.265625 -4.078125 L 4.359375 -3.484375 C 4.296875 -3.441406 4.238281 -3.453125 4.1875 -3.515625 C 4.0625 -3.671875 3.898438 -3.789062 3.703125 -3.875 C 3.515625 -3.96875 3.300781 -4.015625 3.0625 -4.015625 C 2.78125 -4.015625 2.535156 -3.953125 2.328125 -3.828125 C 2.117188 -3.710938 1.953125 -3.546875 1.828125 -3.328125 C 1.710938 -3.109375 1.65625 -2.847656 1.65625 -2.546875 C 1.65625 -2.242188 1.710938 -1.984375 1.828125 -1.765625 C 1.953125 -1.546875 2.117188 -1.378906 2.328125 -1.265625 C 2.535156 -1.148438 2.78125 -1.09375 3.0625 -1.09375 C 3.300781 -1.09375 3.515625 -1.132812 3.703125 -1.21875 C 3.898438 -1.300781 4.0625 -1.421875 4.1875 -1.578125 C 4.238281 -1.648438 4.296875 -1.660156 4.359375 -1.609375 L 5.265625 -1.015625 C 5.335938 -0.953125 5.351562 -0.894531 5.3125 -0.84375 C 5.0625 -0.539062 4.742188 -0.300781 4.359375 -0.125 C 3.984375 0.0507812 3.550781 0.140625 3.0625 0.140625 Z M 3.0625 0.140625 "/></g></g></g><g fill="#f6f6e9" fill-opacity="1"><g transform="translate(17.992315, 7.702042)"><g/></g></g><g fill="#f6f6e9" fill-opacity="1"><g transform="translate(20.775103, 7.702042)"><g><path d="M 2.53125 0 L 1.4375 0 C 1.34375 0 1.296875 -0.046875 1.296875 -0.140625 L 1.296875 -3.9375 L 0.265625 -3.9375 C 0.179688 -3.9375 0.140625 -3.984375 0.140625 -4.078125 L 0.140625 -4.96875 C 0.140625 -5.050781 0.179688 -5.09375 0.265625 -5.09375 L 3.6875 -5.09375 C 3.78125 -5.09375 3.828125 -5.050781 3.828125 -4.96875 L 3.828125 -4.078125 C 3.828125 -3.984375 3.78125 -3.9375 3.6875 -3.9375 L 2.671875 -3.9375 L 2.671875 -0.140625 C 2.671875 -0.046875 2.625 0 2.53125 0 Z M 2.53125 0 "/></g></g></g><g fill="#f6f6e9" fill-opacity="1"><g transform="translate(25.351597, 7.702042)"><g><path d="M 2.8125 -5.09375 L 5.140625 -0.15625 C 5.160156 -0.113281 5.160156 -0.078125 5.140625 -0.046875 C 5.128906 -0.015625 5.097656 0 5.046875 0 L 3.84375 0 C 3.769531 0 3.71875 -0.0351562 3.6875 -0.109375 L 3.53125 -0.53125 L 1.71875 -0.53125 L 1.5625 -0.109375 C 1.53125 -0.0351562 1.476562 0 1.40625 0 L 0.203125 0 C 0.148438 0 0.113281 -0.015625 0.09375 -0.046875 C 0.0703125 -0.078125 0.078125 -0.113281 0.109375 -0.15625 L 2.4375 -5.09375 C 2.488281 -5.195312 2.550781 -5.25 2.625 -5.25 C 2.695312 -5.25 2.757812 -5.195312 2.8125 -5.09375 Z M 2.625 -2.84375 L 2.125 -1.5625 L 3.125 -1.5625 Z M 2.625 -2.84375 "/></g></g></g><g fill="#f6f6e9" fill-opacity="1"><g transform="translate(31.211203, 7.702042)"><g><path d="M 1.734375 0 L 0.640625 0 C 0.546875 0 0.5 -0.046875 0.5 -0.140625 L 0.5 -4.96875 C 0.5 -5.050781 0.546875 -5.09375 0.640625 -5.09375 L 2.765625 -5.09375 C 3.046875 -5.09375 3.289062 -5.0625 3.5 -5 C 3.707031 -4.945312 3.878906 -4.867188 4.015625 -4.765625 C 4.160156 -4.671875 4.273438 -4.550781 4.359375 -4.40625 C 4.441406 -4.269531 4.5 -4.117188 4.53125 -3.953125 C 4.570312 -3.796875 4.59375 -3.628906 4.59375 -3.453125 C 4.59375 -3.109375 4.53125 -2.804688 4.40625 -2.546875 C 4.28125 -2.285156 4.097656 -2.082031 3.859375 -1.9375 C 3.628906 -1.800781 3.351562 -1.734375 3.03125 -1.734375 L 1.875 -1.734375 L 1.875 -0.140625 C 1.875 -0.046875 1.828125 0 1.734375 0 Z M 1.875 -3.9375 L 1.875 -2.890625 L 2.515625 -2.890625 C 2.554688 -2.890625 2.601562 -2.890625 2.65625 -2.890625 C 2.71875 -2.898438 2.78125 -2.910156 2.84375 -2.921875 C 2.914062 -2.941406 2.976562 -2.96875 3.03125 -3 C 3.09375 -3.039062 3.140625 -3.097656 3.171875 -3.171875 C 3.210938 -3.242188 3.234375 -3.332031 3.234375 -3.4375 C 3.234375 -3.5625 3.207031 -3.660156 3.15625 -3.734375 C 3.113281 -3.804688 3.054688 -3.851562 2.984375 -3.875 C 2.910156 -3.90625 2.832031 -3.921875 2.75 -3.921875 C 2.664062 -3.929688 2.585938 -3.9375 2.515625 -3.9375 Z M 1.875 -3.9375 "/></g></g></g><g fill="#f6f6e9" fill-opacity="1"><g transform="translate(36.649736, 7.702042)"><g><path d="M 2.078125 0.140625 C 1.828125 0.140625 1.566406 0.117188 1.296875 0.078125 C 1.023438 0.0351562 0.734375 -0.0234375 0.421875 -0.109375 C 0.335938 -0.140625 0.304688 -0.195312 0.328125 -0.28125 L 0.625 -1.171875 C 0.65625 -1.253906 0.710938 -1.285156 0.796875 -1.265625 C 0.941406 -1.210938 1.085938 -1.164062 1.234375 -1.125 C 1.390625 -1.09375 1.539062 -1.066406 1.6875 -1.046875 C 1.832031 -1.023438 1.96875 -1.015625 2.09375 -1.015625 C 2.269531 -1.015625 2.410156 -1.039062 2.515625 -1.09375 C 2.628906 -1.144531 2.6875 -1.238281 2.6875 -1.375 C 2.6875 -1.457031 2.648438 -1.53125 2.578125 -1.59375 C 2.503906 -1.664062 2.410156 -1.734375 2.296875 -1.796875 C 2.179688 -1.859375 2.046875 -1.921875 1.890625 -1.984375 C 1.742188 -2.046875 1.597656 -2.117188 1.453125 -2.203125 C 1.304688 -2.273438 1.164062 -2.351562 1.03125 -2.4375 C 0.894531 -2.53125 0.773438 -2.632812 0.671875 -2.75 C 0.578125 -2.875 0.5 -3.015625 0.4375 -3.171875 C 0.382812 -3.328125 0.359375 -3.503906 0.359375 -3.703125 C 0.359375 -3.921875 0.390625 -4.113281 0.453125 -4.28125 C 0.515625 -4.457031 0.609375 -4.601562 0.734375 -4.71875 C 0.859375 -4.84375 1 -4.941406 1.15625 -5.015625 C 1.3125 -5.085938 1.476562 -5.140625 1.65625 -5.171875 C 1.84375 -5.210938 2.03125 -5.234375 2.21875 -5.234375 C 2.351562 -5.234375 2.5 -5.222656 2.65625 -5.203125 C 2.8125 -5.179688 2.972656 -5.15625 3.140625 -5.125 C 3.304688 -5.09375 3.46875 -5.050781 3.625 -5 C 3.707031 -4.976562 3.734375 -4.921875 3.703125 -4.828125 L 3.46875 -4 C 3.445312 -3.957031 3.421875 -3.925781 3.390625 -3.90625 C 3.367188 -3.894531 3.335938 -3.894531 3.296875 -3.90625 C 3.128906 -3.96875 2.953125 -4.015625 2.765625 -4.046875 C 2.585938 -4.078125 2.421875 -4.09375 2.265625 -4.09375 C 2.109375 -4.09375 1.976562 -4.070312 1.875 -4.03125 C 1.78125 -3.988281 1.734375 -3.910156 1.734375 -3.796875 C 1.734375 -3.722656 1.757812 -3.65625 1.8125 -3.59375 C 1.863281 -3.53125 1.9375 -3.46875 2.03125 -3.40625 C 2.132812 -3.351562 2.253906 -3.300781 2.390625 -3.25 C 2.523438 -3.195312 2.664062 -3.132812 2.8125 -3.0625 C 2.96875 -2.988281 3.117188 -2.90625 3.265625 -2.8125 C 3.410156 -2.726562 3.546875 -2.617188 3.671875 -2.484375 C 3.796875 -2.359375 3.894531 -2.207031 3.96875 -2.03125 C 4.039062 -1.863281 4.078125 -1.660156 4.078125 -1.421875 C 4.078125 -1.191406 4.039062 -0.988281 3.96875 -0.8125 C 3.894531 -0.632812 3.789062 -0.484375 3.65625 -0.359375 C 3.519531 -0.242188 3.363281 -0.148438 3.1875 -0.078125 C 3.019531 -0.00390625 2.84375 0.046875 2.65625 0.078125 C 2.46875 0.117188 2.273438 0.140625 2.078125 0.140625 Z M 2.078125 0.140625 "/></g></g></g><g fill="#f6f6e9" fill-opacity="1"><g transform="translate(41.614147, 7.702042)"><g><path d="M 2.078125 0.140625 C 1.828125 0.140625 1.566406 0.117188 1.296875 0.078125 C 1.023438 0.0351562 0.734375 -0.0234375 0.421875 -0.109375 C 0.335938 -0.140625 0.304688 -0.195312 0.328125 -0.28125 L 0.625 -1.171875 C 0.65625 -1.253906 0.710938 -1.285156 0.796875 -1.265625 C 0.941406 -1.210938 1.085938 -1.164062 1.234375 -1.125 C 1.390625 -1.09375 1.539062 -1.066406 1.6875 -1.046875 C 1.832031 -1.023438 1.96875 -1.015625 2.09375 -1.015625 C 2.269531 -1.015625 2.410156 -1.039062 2.515625 -1.09375 C 2.628906 -1.144531 2.6875 -1.238281 2.6875 -1.375 C 2.6875 -1.457031 2.648438 -1.53125 2.578125 -1.59375 C 2.503906 -1.664062 2.410156 -1.734375 2.296875 -1.796875 C 2.179688 -1.859375 2.046875 -1.921875 1.890625 -1.984375 C 1.742188 -2.046875 1.597656 -2.117188 1.453125 -2.203125 C 1.304688 -2.273438 1.164062 -2.351562 1.03125 -2.4375 C 0.894531 -2.53125 0.773438 -2.632812 0.671875 -2.75 C 0.578125 -2.875 0.5 -3.015625 0.4375 -3.171875 C 0.382812 -3.328125 0.359375 -3.503906 0.359375 -3.703125 C 0.359375 -3.921875 0.390625 -4.113281 0.453125 -4.28125 C 0.515625 -4.457031 0.609375 -4.601562 0.734375 -4.71875 C 0.859375 -4.84375 1 -4.941406 1.15625 -5.015625 C 1.3125 -5.085938 1.476562 -5.140625 1.65625 -5.171875 C 1.84375 -5.210938 2.03125 -5.234375 2.21875 -5.234375 C 2.351562 -5.234375 2.5 -5.222656 2.65625 -5.203125 C 2.8125 -5.179688 2.972656 -5.15625 3.140625 -5.125 C 3.304688 -5.09375 3.46875 -5.050781 3.625 -5 C 3.707031 -4.976562 3.734375 -4.921875 3.703125 -4.828125 L 3.46875 -4 C 3.445312 -3.957031 3.421875 -3.925781 3.390625 -3.90625 C 3.367188 -3.894531 3.335938 -3.894531 3.296875 -3.90625 C 3.128906 -3.96875 2.953125 -4.015625 2.765625 -4.046875 C 2.585938 -4.078125 2.421875 -4.09375 2.265625 -4.09375 C 2.109375 -4.09375 1.976562 -4.070312 1.875 -4.03125 C 1.78125 -3.988281 1.734375 -3.910156 1.734375 -3.796875 C 1.734375 -3.722656 1.757812 -3.65625 1.8125 -3.59375 C 1.863281 -3.53125 1.9375 -3.46875 2.03125 -3.40625 C 2.132812 -3.351562 2.253906 -3.300781 2.390625 -3.25 C 2.523438 -3.195312 2.664062 -3.132812 2.8125 -3.0625 C 2.96875 -2.988281 3.117188 -2.90625 3.265625 -2.8125 C 3.410156 -2.726562 3.546875 -2.617188 3.671875 -2.484375 C 3.796875 -2.359375 3.894531 -2.207031 3.96875 -2.03125 C 4.039062 -1.863281 4.078125 -1.660156 4.078125 -1.421875 C 4.078125 -1.191406 4.039062 -0.988281 3.96875 -0.8125 C 3.894531 -0.632812 3.789062 -0.484375 3.65625 -0.359375 C 3.519531 -0.242188 3.363281 -0.148438 3.1875 -0.078125 C 3.019531 -0.00390625 2.84375 0.046875 2.65625 0.078125 C 2.46875 0.117188 2.273438 0.140625 2.078125 0.140625 Z M 2.078125 0.140625 "/></g></g></g></g></g></svg>